<mxfile host="app.diagrams.net" modified="2021-04-19T21:34:38.352Z" agent="5.0 (Windows NT 10.0; Win64; x64) AppleWebKit/537.36 (KHTML, like Gecko) Chrome/90.0.4430.72 Safari/537.36" etag="L3c7ZHHZz0_4GVHUHtqY" version="14.6.0" type="github">
  <diagram id="OCxnewWBckT8wKgn8z43" name="Page-1">
    <mxGraphModel dx="868" dy="449" grid="0" gridSize="10" guides="1" tooltips="1" connect="1" arrows="1" fold="1" page="1" pageScale="1" pageWidth="1169" pageHeight="827" math="0" shadow="0">
      <root>
        <mxCell id="0" />
        <mxCell id="1" parent="0" />
        <mxCell id="u8A__aswwAwtywpeWHqp-1" value="Aluno" style="shape=umlActor;verticalLabelPosition=bottom;verticalAlign=top;html=1;outlineConnect=0;fontSize=16;" parent="1" vertex="1">
          <mxGeometry x="324" y="194" width="77" height="108" as="geometry" />
        </mxCell>
        <mxCell id="u8A__aswwAwtywpeWHqp-4" value="REALIZAR MATRÍCULA" style="ellipse;whiteSpace=wrap;html=1;fontSize=16;" parent="1" vertex="1">
          <mxGeometry x="598" y="159" width="135.5" height="48" as="geometry" />
        </mxCell>
        <mxCell id="u8A__aswwAwtywpeWHqp-5" value="EMITIR HISTÓRICO ESCOLAR" style="ellipse;whiteSpace=wrap;html=1;fontSize=16;" parent="1" vertex="1">
          <mxGeometry x="588" y="367" width="174" height="47" as="geometry" />
        </mxCell>
        <mxCell id="u8A__aswwAwtywpeWHqp-7" value="" style="endArrow=classic;html=1;entryX=0.003;entryY=0.479;entryDx=0;entryDy=0;entryPerimeter=0;" parent="1" edge="1" target="u8A__aswwAwtywpeWHqp-4">
          <mxGeometry width="50" height="50" relative="1" as="geometry">
            <mxPoint x="423" y="231" as="sourcePoint" />
            <mxPoint x="231" y="102" as="targetPoint" />
          </mxGeometry>
        </mxCell>
        <mxCell id="u8A__aswwAwtywpeWHqp-8" value="" style="endArrow=classic;html=1;entryX=0;entryY=0.5;entryDx=0;entryDy=0;" parent="1" edge="1" target="u8A__aswwAwtywpeWHqp-5">
          <mxGeometry width="50" height="50" relative="1" as="geometry">
            <mxPoint x="412" y="273" as="sourcePoint" />
            <mxPoint x="217" y="198" as="targetPoint" />
          </mxGeometry>
        </mxCell>
        <mxCell id="aiia4L-PSFcGPUpKQwuS-6" value="&lt;font style=&quot;font-size: 16px&quot;&gt;EMITIR ATESTADO DE MATRÍCULA&lt;/font&gt;" style="ellipse;whiteSpace=wrap;html=1;" vertex="1" parent="1">
          <mxGeometry x="545.5" y="469" width="160.5" height="56" as="geometry" />
        </mxCell>
        <mxCell id="aiia4L-PSFcGPUpKQwuS-7" value="" style="endArrow=classic;html=1;entryX=0;entryY=0.5;entryDx=0;entryDy=0;" edge="1" parent="1" target="aiia4L-PSFcGPUpKQwuS-23">
          <mxGeometry width="50" height="50" relative="1" as="geometry">
            <mxPoint x="363" y="339" as="sourcePoint" />
            <mxPoint x="220" y="299" as="targetPoint" />
          </mxGeometry>
        </mxCell>
        <mxCell id="aiia4L-PSFcGPUpKQwuS-8" value="&lt;font style=&quot;font-size: 16px&quot;&gt;CONSULTAR&lt;br&gt;&amp;nbsp;AVALIAÇÃO&lt;/font&gt;" style="ellipse;whiteSpace=wrap;html=1;" vertex="1" parent="1">
          <mxGeometry x="870" y="66" width="141.25" height="62" as="geometry" />
        </mxCell>
        <mxCell id="aiia4L-PSFcGPUpKQwuS-23" value="&lt;font style=&quot;font-size: 15px&quot;&gt;CONSULTAR MINHAS NOTAS&lt;/font&gt;" style="ellipse;whiteSpace=wrap;html=1;" vertex="1" parent="1">
          <mxGeometry x="545.5" y="581" width="135.5" height="56" as="geometry" />
        </mxCell>
        <mxCell id="aiia4L-PSFcGPUpKQwuS-24" value="&lt;font style=&quot;font-size: 12px&quot;&gt;&lt;b&gt;IMPRIMIR DOCUMENTOS&lt;/b&gt;&lt;/font&gt;" style="ellipse;whiteSpace=wrap;html=1;" vertex="1" parent="1">
          <mxGeometry x="939" y="553" width="96" height="65" as="geometry" />
        </mxCell>
        <mxCell id="aiia4L-PSFcGPUpKQwuS-26" value="&amp;lt;&amp;lt;extends&amp;gt;&amp;gt;" style="html=1;verticalAlign=bottom;endArrow=open;dashed=1;endSize=8;exitX=0;exitY=1;exitDx=0;exitDy=0;entryX=1;entryY=0.5;entryDx=0;entryDy=0;" edge="1" parent="1" source="aiia4L-PSFcGPUpKQwuS-24" target="aiia4L-PSFcGPUpKQwuS-23">
          <mxGeometry x="-0.0892" y="-5" relative="1" as="geometry">
            <mxPoint x="455" y="287" as="sourcePoint" />
            <mxPoint x="375" y="292" as="targetPoint" />
            <mxPoint as="offset" />
          </mxGeometry>
        </mxCell>
        <mxCell id="aiia4L-PSFcGPUpKQwuS-27" value="&amp;lt;&amp;lt;extends&amp;gt;&amp;gt;" style="html=1;verticalAlign=bottom;endArrow=open;dashed=1;endSize=8;entryX=1;entryY=0.5;entryDx=0;entryDy=0;" edge="1" parent="1" source="aiia4L-PSFcGPUpKQwuS-24" target="aiia4L-PSFcGPUpKQwuS-6">
          <mxGeometry x="-0.0892" y="-5" relative="1" as="geometry">
            <mxPoint x="466" y="220" as="sourcePoint" />
            <mxPoint x="386" y="225" as="targetPoint" />
            <mxPoint as="offset" />
          </mxGeometry>
        </mxCell>
        <mxCell id="aiia4L-PSFcGPUpKQwuS-28" value="&amp;lt;&amp;lt;extends&amp;gt;&amp;gt;" style="html=1;verticalAlign=bottom;endArrow=open;dashed=1;endSize=8;entryX=1;entryY=0.5;entryDx=0;entryDy=0;exitX=0.427;exitY=0;exitDx=0;exitDy=0;exitPerimeter=0;" edge="1" parent="1" source="aiia4L-PSFcGPUpKQwuS-24" target="u8A__aswwAwtywpeWHqp-5">
          <mxGeometry x="-0.0892" y="-5" relative="1" as="geometry">
            <mxPoint x="498" y="240" as="sourcePoint" />
            <mxPoint x="393" y="162" as="targetPoint" />
            <mxPoint as="offset" />
          </mxGeometry>
        </mxCell>
        <mxCell id="aiia4L-PSFcGPUpKQwuS-30" value="" style="endArrow=classic;html=1;entryX=0;entryY=0.5;entryDx=0;entryDy=0;" edge="1" parent="1" target="aiia4L-PSFcGPUpKQwuS-6">
          <mxGeometry width="50" height="50" relative="1" as="geometry">
            <mxPoint x="410" y="328" as="sourcePoint" />
            <mxPoint x="204" y="170" as="targetPoint" />
          </mxGeometry>
        </mxCell>
        <mxCell id="aiia4L-PSFcGPUpKQwuS-31" value="&lt;font style=&quot;font-size: 16px&quot;&gt;CONSULTAR&lt;br&gt;&amp;nbsp;AVALIAÇÃO&lt;/font&gt;" style="ellipse;whiteSpace=wrap;html=1;" vertex="1" parent="1">
          <mxGeometry x="896" y="200" width="141.25" height="62" as="geometry" />
        </mxCell>
        <mxCell id="aiia4L-PSFcGPUpKQwuS-32" value="&lt;font style=&quot;font-size: 16px&quot;&gt;CONSULTAR&lt;br&gt;&amp;nbsp;AVALIAÇÃO&lt;/font&gt;" style="ellipse;whiteSpace=wrap;html=1;" vertex="1" parent="1">
          <mxGeometry x="919" y="335" width="141.25" height="62" as="geometry" />
        </mxCell>
        <mxCell id="aiia4L-PSFcGPUpKQwuS-33" value="&amp;lt;&amp;lt;INCLUDE&amp;gt;&amp;gt;" style="html=1;verticalAlign=bottom;endArrow=open;dashed=1;endSize=8;entryX=0;entryY=0.5;entryDx=0;entryDy=0;exitX=0.566;exitY=0.036;exitDx=0;exitDy=0;exitPerimeter=0;" edge="1" parent="1" source="u8A__aswwAwtywpeWHqp-4" target="aiia4L-PSFcGPUpKQwuS-8">
          <mxGeometry relative="1" as="geometry">
            <mxPoint x="320.5" y="165" as="sourcePoint" />
            <mxPoint x="240.5" y="165" as="targetPoint" />
          </mxGeometry>
        </mxCell>
        <mxCell id="aiia4L-PSFcGPUpKQwuS-34" value="&amp;lt;&amp;lt;INCLUDE&amp;gt;&amp;gt;" style="html=1;verticalAlign=bottom;endArrow=open;dashed=1;endSize=8;exitX=1;exitY=0.5;exitDx=0;exitDy=0;entryX=0;entryY=0.5;entryDx=0;entryDy=0;" edge="1" parent="1" source="u8A__aswwAwtywpeWHqp-4" target="aiia4L-PSFcGPUpKQwuS-31">
          <mxGeometry x="0.0416" y="4" relative="1" as="geometry">
            <mxPoint x="267.073" y="147.99799999999996" as="sourcePoint" />
            <mxPoint x="400" y="132" as="targetPoint" />
            <Array as="points" />
            <mxPoint as="offset" />
          </mxGeometry>
        </mxCell>
        <mxCell id="aiia4L-PSFcGPUpKQwuS-35" value="&amp;lt;&amp;lt;INCLUDE&amp;gt;&amp;gt;" style="html=1;verticalAlign=bottom;endArrow=open;dashed=1;endSize=8;entryX=0.018;entryY=0.353;entryDx=0;entryDy=0;exitX=0.5;exitY=1;exitDx=0;exitDy=0;entryPerimeter=0;" edge="1" parent="1" source="u8A__aswwAwtywpeWHqp-4" target="aiia4L-PSFcGPUpKQwuS-32">
          <mxGeometry relative="1" as="geometry">
            <mxPoint x="284.943" y="97.72799999999995" as="sourcePoint" />
            <mxPoint x="418.0000000000016" y="82" as="targetPoint" />
          </mxGeometry>
        </mxCell>
        <mxCell id="aiia4L-PSFcGPUpKQwuS-79" value="" style="endArrow=classic;html=1;entryX=0.508;entryY=0;entryDx=0;entryDy=0;entryPerimeter=0;" edge="1" parent="1" target="aiia4L-PSFcGPUpKQwuS-87">
          <mxGeometry width="50" height="50" relative="1" as="geometry">
            <mxPoint x="293" y="248" as="sourcePoint" />
            <mxPoint x="156" y="392" as="targetPoint" />
            <Array as="points">
              <mxPoint x="156" y="248" />
            </Array>
          </mxGeometry>
        </mxCell>
        <mxCell id="aiia4L-PSFcGPUpKQwuS-87" value="VER FREQUÊNCIA" style="ellipse;whiteSpace=wrap;html=1;" vertex="1" parent="1">
          <mxGeometry x="95" y="410" width="120" height="80" as="geometry" />
        </mxCell>
        <mxCell id="aiia4L-PSFcGPUpKQwuS-88" value="&amp;lt;&amp;lt;INCLUDES&amp;gt;&amp;gt;" style="html=1;verticalAlign=bottom;endArrow=open;dashed=1;endSize=8;exitX=0.5;exitY=1;exitDx=0;exitDy=0;" edge="1" parent="1" source="aiia4L-PSFcGPUpKQwuS-87">
          <mxGeometry relative="1" as="geometry">
            <mxPoint x="314" y="525" as="sourcePoint" />
            <mxPoint x="155" y="582" as="targetPoint" />
          </mxGeometry>
        </mxCell>
        <mxCell id="aiia4L-PSFcGPUpKQwuS-89" value="SELECIONAR TURMA" style="ellipse;whiteSpace=wrap;html=1;" vertex="1" parent="1">
          <mxGeometry x="98" y="585" width="120" height="80" as="geometry" />
        </mxCell>
      </root>
    </mxGraphModel>
  </diagram>
</mxfile>
